<?xml version="1.0" encoding="UTF-8"?>
<svg width="38px" height="36px" viewBox="0 0 38 36" version="1.1" xmlns="http://www.w3.org/2000/svg" xmlns:xlink="http://www.w3.org/1999/xlink">
    <title>Path</title>
    <g id="Page-4" stroke="none" stroke-width="1" fill="none" fill-rule="evenodd">
        <path d="M37.9138367,17.3178291 C37.7273189,16.7192148 37.2626823,16.2162125 36.7006419,16.0046189 C36.2003597,15.8167206 35.6706491,15.7722402 35.2283946,15.7830485 C35.2578311,15.6993362 35.2705077,15.6106208 35.2656982,15.5219861 C35.2574292,15.3450298 35.1584959,15.1849495 35.0041587,15.0987991 C34.4806654,14.7878522 33.2716155,15.1403695 32.7406614,15.3989376 C32.3029663,15.6113626 32.0671249,16.0898383 31.9688921,16.3413395 C29.5056135,16.9141801 27.2810777,17.1270208 25.1738408,16.9910855 C24.9425587,16.9765358 24.7179084,16.9574134 24.4982319,16.9357968 C24.4369804,16.9290592 24.3836022,16.8909265 24.357235,16.8350701 C24.3308677,16.7792137 24.3352887,16.7136357 24.3689128,16.6618476 C26.6663979,13.1283603 30.2923042,11.0323788 30.3308512,11.0057737 L30.3424568,10.9974596 C30.854263,10.5930298 31.3329985,10.1481936 31.7740846,9.66720554 C32.7365166,8.60882217 33.1568034,7.69551963 33.0233395,6.95140878 C32.9350544,6.46004619 32.6088555,6.03228637 32.1222512,5.77745958 C31.568915,5.48646651 30.8854309,5.46069284 30.3399699,5.70928406 C29.8537801,5.93127021 29.4480002,6.27547344 29.14294,6.59681293 C29.1048814,6.51644404 29.0510266,6.44461469 28.9846071,6.3856351 C28.8541074,6.26617715 28.6712089,6.22307101 28.5013187,6.2717321 C27.9127514,6.4230485 27.3059467,7.53006928 27.1123827,8.08919169 C26.9507339,8.5547806 27.1268896,9.0665127 27.2367279,9.31053118 C26.1060154,11.3416628 24.9044262,12.4162587 23.7111267,13.5636028 C22.6749166,14.5612933 21.6440948,15.2987529 20.6721297,15.9085912 C20.5173298,16.0065219 20.3197213,16.0045709 20.1668737,15.9036028 C20.1469784,15.8903002 20.1268069,15.8764434 20.106359,15.8620323 C19.968172,15.7608999 19.8970583,15.5914306 19.9215547,15.4216295 C19.946051,15.2518285 20.0621424,15.1095255 20.2232435,15.0518245 C21.3701208,14.6103464 22.4730628,13.5552887 23.4147706,11.975612 C24.4924291,10.1727021 25.1858609,7.90628176 25.1858609,6.20147806 C25.1837884,2.78230947 22.4096468,0 18.9992721,0 C15.5888975,0 12.8151703,2.78230947 12.8151703,6.20230947 C12.8151703,7.90669746 13.51026,10.1739492 14.5862606,11.9764434 C15.5279683,13.5561201 16.6309103,14.6090993 17.7777877,15.0526559 C17.9388887,15.1103569 18.0549802,15.2526599 18.0794765,15.4224609 C18.1039728,15.592262 18.0328591,15.7617313 17.8946722,15.8628637 C17.8742243,15.8778291 17.8540527,15.8916859 17.8341575,15.9044342 C17.6813098,16.0054023 17.4837014,16.0073533 17.3289015,15.9094226 C16.3569364,15.2995843 15.3261146,14.5612933 14.2899045,13.5644342 C13.096605,12.4154273 11.8946012,11.3412471 10.7643033,9.31177829 C10.8724836,9.06775982 11.0482248,8.55602771 10.8886485,8.0904388 C10.6950844,7.5313164 10.0886943,6.42429561 9.49971248,6.27297921 C9.32982229,6.22431812 9.14692372,6.26742426 9.01642409,6.38688222 C8.9500046,6.44586181 8.89614976,6.51769115 8.85809119,6.59806005 C8.55344542,6.27713626 8.14725106,5.93293303 7.66106129,5.71053118 C7.11477133,5.46110855 6.43087266,5.48729792 5.87877993,5.7787067 C5.39424809,6.03311778 5.06639121,6.4612933 4.97769163,6.95265589 C4.84422777,7.69676674 5.26451458,8.61006928 6.22694652,9.66845266 C6.66803263,10.1494407 7.14676819,10.5942769 7.65857438,10.9987067 L7.67017994,11.0070208 C7.70872695,11.0336259 11.3346333,13.1308545 13.6321183,16.6630947 C13.6657425,16.7148829 13.6701634,16.7804609 13.6437962,16.8363172 C13.6174289,16.8921736 13.5640508,16.9303063 13.5027993,16.9370439 C13.2831228,16.9590762 13.0580579,16.9786143 12.8271903,16.9923326 C10.7174666,17.1270208 8.49293075,16.9141801 6.02965212,16.3409238 C5.93183388,16.0894226 5.69557798,15.6109469 5.25788284,15.3985219 C4.72692879,15.1407852 3.51704988,14.7878522 2.99438551,15.0983834 C2.84056548,15.1850275 2.7422872,15.3452196 2.73450402,15.5219861 C2.72969446,15.6106208 2.74237112,15.6993362 2.77180758,15.7830485 C2.3299676,15.7722402 1.800257,15.8167206 1.29956028,16.0046189 C0.737519928,16.2157968 0.272883322,16.7192148 0.0863655054,17.3178291 C-0.0765267213,17.8407852 -0.00689340299,18.3762125 0.277442647,18.7865127 C0.712236402,19.4142263 1.74554511,19.7068822 3.35001282,19.656582 C3.89525156,19.6355747 4.4389163,19.584365 4.9785206,19.5031871 C5.26036974,19.4616166 5.53973198,19.4038337 5.81619284,19.3369053 C6.09265369,19.2699769 6.65386508,19.1631409 7.63660673,19.1140878 C9.85326736,19.0035104 12.1345875,19.2479446 14.4374608,19.5264665 C14.4990121,19.5354808 14.5483706,19.5821411 14.5609796,19.643233 C14.5735886,19.704325 14.5467557,19.7668035 14.4938306,19.7995843 C8.57126823,23.5779215 5.1447287,24.9838337 4.38166358,25.2353349 C4.17975127,25.0751472 3.96869698,24.9269048 3.74957543,24.7913626 C3.15271841,24.425127 2.64746237,24.2684065 2.24789976,24.325358 C1.79196732,24.3902079 1.45416283,24.7410624 1.475716,25.2498845 C1.49975607,25.8227252 1.93164844,26.713164 2.42115409,27.4227714 C3.02339939,28.2957506 3.90915178,29.4597229 4.85500435,29.4954734 C5.72915119,29.5291455 5.79505415,28.8872979 5.7938107,28.6802771 C5.79262616,28.6390852 5.81072278,28.5997091 5.84271982,28.5738568 C6.03462593,28.4158891 6.72888669,27.8496998 7.43433852,27.3554273 C9.55608231,25.8696998 12.9494631,24.2251732 15.6788405,23.1098383 C15.7224553,23.0933633 15.7714387,23.1003692 15.8087232,23.1284149 C15.8460077,23.1564606 15.8664289,23.2016614 15.8628714,23.2482679 C15.6863012,25.9179215 15.2137894,28.0920554 14.7773377,29.615612 C14.2194422,31.5623557 13.6205128,32.8206928 13.4132708,33.2260046 C13.3955696,33.2620718 13.3646935,33.2899123 13.3270581,33.3037413 C12.8914354,33.4700231 11.7744009,33.9618014 11.4792882,34.68097 C11.304376,35.1074827 11.4660248,35.5048961 11.913253,35.7430947 C12.2290899,35.9118707 12.6750747,35.9995843 13.1716266,35.9995843 C13.592548,35.9895086 14.0126187,35.95662 14.4300001,35.9010624 C15.3596878,35.7630485 17.3906596,35.507806 17.65137,34.8775982 C17.8018277,34.5146882 17.7413131,34.2062356 17.4731419,33.994642 C17.4468432,33.9735461 17.4339958,33.9398218 17.4395687,33.9065127 C17.6053623,33.2260046 18.2001469,30.4919169 18.8682952,23.8073903 C18.8737335,23.7388839 18.9307507,23.6860709 18.9992721,23.6860709 C19.0677936,23.6860709 19.1248107,23.7388839 19.1302491,23.8073903 C19.7983974,30.4927483 20.391524,33.2264203 20.5573176,33.9069284 C20.5628905,33.9402375 20.5500431,33.9739618 20.5237444,33.9950577 C20.2551588,34.2066513 20.1950586,34.5151039 20.3455163,34.8780139 C20.6062267,35.5082217 22.637613,35.7634642 23.5668862,35.9014781 C23.9846795,35.9570805 24.4051664,35.9899692 24.8265032,36 C25.3238841,36 25.7690399,35.9122864 26.0848767,35.7435104 C26.532105,35.5053118 26.6937538,35.1078984 26.5188415,34.6813857 C26.2237289,33.9626328 25.1066944,33.4716859 24.6710717,33.304157 C24.6334362,33.290328 24.6025602,33.2624875 24.584859,33.2264203 C24.377617,32.8211085 23.7786876,31.5636028 23.220792,29.6160277 C22.7839259,28.0924711 22.3118286,25.9183372 22.1352584,23.2486836 C22.1317009,23.2020771 22.1521221,23.1568763 22.1894066,23.1288306 C22.2266911,23.1007849 22.2756745,23.093779 22.3192893,23.110254 C25.0486667,24.2255889 28.442462,25.8701155 30.5637913,27.355843 C31.2684141,27.8496998 31.9635038,28.4158891 32.15541,28.5742725 C32.187407,28.6001248 32.2055036,28.6395009 32.2043191,28.6806928 C32.2043191,28.888545 32.2689786,29.5291455 33.1431254,29.4958891 C34.0885635,29.4597229 34.9743159,28.2953349 35.5769757,27.4231871 C36.0673103,26.7135797 36.4983737,25.8231409 36.5224138,25.2503002 C36.5439669,24.7431409 36.2061625,24.3906236 35.75023,24.3257737 C35.3506674,24.2688222 34.8454114,24.4255427 34.2485543,24.7917783 C34.0294328,24.9273205 33.8183785,25.0755629 33.6164662,25.2357506 C32.8538156,24.9838337 29.427276,23.5779215 23.5063716,19.7983372 C23.4534465,19.7655564 23.4266136,19.7030779 23.4392226,19.6419859 C23.4518316,19.5808939 23.5011901,19.5342337 23.5627414,19.5252194 C25.8652002,19.2466975 28.1465203,19.0018476 30.3635955,19.1128406 C31.3463371,19.1618938 31.9100354,19.2678984 32.1840094,19.3356582 C32.4579833,19.403418 32.7398325,19.4603695 33.0216816,19.50194 C33.5611179,19.5836593 34.104644,19.6354241 34.6497749,19.6569977 C36.2542426,19.7072979 37.2875513,19.414642 37.7223451,18.7869284 C38.0070956,18.3766282 38.0763144,17.8412009 37.9138367,17.3178291 Z" id="Path" fill="#B7AFA6" fill-rule="nonzero"></path>
    </g>
</svg>