<?xml version="1.0" encoding="UTF-8"?>
<svg width="53px" height="48px" viewBox="0 0 53 48" version="1.1" xmlns="http://www.w3.org/2000/svg" xmlns:xlink="http://www.w3.org/1999/xlink">
    <title>Combined Shape</title>
    <g id="Page-4" stroke="none" stroke-width="1" fill="none" fill-rule="evenodd">
        <path d="M22.9326923,37.2244898 C26.0050851,37.2244898 28.5384615,39.6593407 28.5384615,42.6122449 C28.5384615,45.5651491 26.0050851,48 22.9326923,48 C19.8602996,48 17.3269231,45.5651491 17.3269231,42.6122449 C17.3269231,39.6593407 19.8602996,37.2244898 22.9326923,37.2244898 Z M43.3173077,37.2244898 C46.3897004,37.2244898 48.8691753,39.6593407 48.9230769,42.6122449 C48.9230769,45.5651491 46.3897004,48 43.3173077,48 C40.2449149,48 37.7115385,45.5651491 37.7115385,42.6122449 C37.7115385,39.6593407 40.2449149,37.2244898 43.3173077,37.2244898 Z M22.9326923,40.4882261 C21.6929549,40.4882261 20.7227256,41.4207221 20.7227256,42.6122449 C20.7227256,43.8037677 21.6929549,44.7362637 22.9326923,44.7362637 C24.1185281,44.7362637 25.142659,43.7519623 25.142659,42.6122449 C25.142659,41.4207221 24.1724297,40.4882261 22.9326923,40.4882261 Z M43.3173077,40.4882261 C42.0775703,40.4882261 41.107341,41.4207221 41.107341,42.6122449 C41.107341,43.8037677 42.0775703,44.7362637 43.3173077,44.7362637 C44.5031435,44.7362637 45.5272744,43.7519623 45.5272744,42.6122449 C45.5272744,41.4207221 44.5570451,40.4882261 43.3173077,40.4882261 Z M7.42135207,0 C9.87653621,0 11.9969225,1.63770771 12.6107186,3.98508877 L12.6107186,3.98508877 L13.6709117,8.0247678 L47.6528922,8.0247678 C49.2710818,8.0247678 50.8334717,8.7890314 51.8378652,10.0446073 C52.8980584,11.3001832 53.2328562,12.9378909 52.8422587,14.4664181 L52.8422587,14.4664181 L48.6572857,31.2802174 C48.0992893,33.6275984 45.9231034,35.2653061 43.4679193,35.2653061 L43.4679193,35.2653061 L21.2038631,35.2653061 C18.7486789,35.2653061 16.6282926,33.6275984 16.0144966,31.2802174 L16.0144966,31.2802174 L9.20694054,4.74935237 C8.98374198,3.93049852 8.25834666,3.38459594 7.42135207,3.38459594 L7.42135207,3.38459594 L1.72978883,3.38459594 C0.781194955,3.38459594 0,2.62033234 0,1.69229797 C0,0.7642636 0.781194955,0 1.72978883,0 L1.72978883,0 Z" id="Combined-Shape" fill="#77B2D6" fill-rule="nonzero"></path>
    </g>
</svg>