<?xml version="1.0" encoding="UTF-8"?>
<svg width="205px" height="429px" viewBox="0 0 205 429" version="1.1" xmlns="http://www.w3.org/2000/svg" xmlns:xlink="http://www.w3.org/1999/xlink">
    <title>darvin4</title>
    <g id="darvin4" stroke="none" stroke-width="1" fill="none" fill-rule="evenodd">
        <g transform="translate(0.000000, 50.000000)" fill="#BBFA4A" fill-rule="nonzero" id="Shape">
            <path d="M198.19,71.19 C203.71,43.57 204.19,29.53 204.08,23.73 C204.07477,23.3654762 203.811435,23.0560144 203.452445,22.9925197 C203.093456,22.929025 202.739949,23.1293854 202.61,23.47 C199.45,31.47 190.99,53.33 186.81,67.79 C181.61,85.79 164.65,167.14 164.65,167.14 C162,174.14 151.35,166.05 143.98,159.27 C136.61,152.49 130.07,145 127.64,141 C124.89,136.36 127.84,120.79 128.57,115.9 C129.12,112.26 133.43,110.19 136.38,107.77 C139.748975,105.052962 141.940933,101.141822 142.5,96.85 C143.030407,92.4926812 142.44901,88.0720024 140.81,84 C139.085398,79.7887457 138.429246,75.2162904 138.9,70.69 C139.046995,69.0912482 139.828593,67.6180977 141.07,66.6 C147.94,61.13 163.13,64.76 168.65,64.6 C174.73,64.38 176.38,56.98 177.05,54.55 C177.72,52.12 177.82,47.7 178.27,46.93 C178.72,46.16 182.03,46.38 181.92,42.73 C181.81,39.08 178,40.51 176.6,38 C175.2,35.49 176.6,33.43 178.6,30.6 C180.23,28.32 180.52,23.16 180.52,23.16 C181.25,10.81 173.24,3.82 166.01,1.47 C158.78,-0.88 144.5,-0.53 135.46,3.82 C126.42,8.17 124.24,15 123.88,23.49 C123.52,31.98 121.88,35.97 120.45,38.13 C116.69,43.67 105,47 98.7,50.48 C92.4,53.96 74.71,72.3 66.4,77.54 C58.09,82.78 52.3,90.74 52.84,96.34 C53.38,101.94 51.94,117.85 50.84,125.26 C49.74,132.67 55,139.18 56.84,142.61 C58.68,146.04 65.16,157.43 60.09,174.25 C55.02,191.07 61.9,197.93 64.25,204.44 C66.6,210.95 66.42,233 66.42,242.58 C66.42,252.16 58.42,259.75 54.85,261.92 C53.8138679,262.499802 52.6937903,262.914771 51.53,263.15 C43.8404299,264.790455 37.4903559,270.186139 34.63,277.51 C31.87,284.82 29.71,293.51 25.03,301.32 C17.97,313.04 11.03,310.45 3.52,318.13 C-2.77,324.56 0.62,329.86 4.6,331.13 C8.58,332.4 12.6,331.81 14.05,339.29 C15.53,347.15 27.89,358.22 39.31,358.43 C47.46,358.58 48.65,357.43 48.55,354.99 C48.46,352.84 46.38,352.6 43.66,352.26 C33.25,351 32.72,335.75 33.76,323 C34.8,310.25 43.63,304.48 49.84,300.62 C56.05,296.76 74,282.62 78.14,278.34 C82.28,274.06 97.23,263.11 98.54,260.48 C99.85,257.85 98.73,252.68 98.82,248.54 C98.91,244.4 102.02,245.25 103.52,246.19 C105.02,247.13 111.61,255.19 111.89,256.81 C112.17,258.43 111.8,266.96 111.8,266.96 C111.61,271.96 103.34,280.22 101.36,283.13 C99.38,286.04 98.16,293.94 98.26,298.46 C98.36,302.98 99.67,317.73 99.86,334.56 C100.05,351.39 92.77,354.12 89.86,357.03 C86.95,359.94 86.38,364.83 92.12,370.1 C97.86,375.37 107.99,370.99 108.95,370.57 C113.11796,368.553194 117.90281,368.220117 122.31,369.64 C128.9,371.46 132.07,375.92 136.31,377.52 C138.63,378.4 148.31,378.65 152.31,376.3 C156.31,373.95 154.94,369.81 150.99,369.3 C147.04,368.79 137.99,366.2 137.99,366.2 C126.05,361.12 118.9,351.44 117.99,342.98 C117.83,341.57 117.61,338.47 118.84,331.04 C120.335653,322.924674 122.281998,314.89892 124.67,307 C127.02,298.82 131.74,291.52 133.98,284.44 C135.41,279.92 136.89,279.44 137.98,279.95 C140.25,280.95 137.4,289.23 137.4,289.23 C136.48,291.74 125.52,332.02 125.52,332.02 C122.82,342.16 133.2,342.15 134.68,335.49 C135.09,333.64 146.68,289.26 149.68,277.49 C152.68,265.72 165.31,202.28 166.61,197.72 C167.91,193.16 172.14,197.72 172.47,192.51 C172.8,187.3 174.75,187.63 175.73,185.67 C176.71,183.71 177.36,179.81 175.4,176.88 C173.44,173.95 175.4,167.76 175.4,167.76 L198.19,71.19 Z M79.81,113.19 C80.31,121.26 80.39,127.91 80.38,131.96 C80.38,136.33 81.38,141.29 77.23,141.29 C76.73,141.29 73.07,141.67 72.44,131.08 C71.81,120.49 70.17,123.08 69.16,117.97 C67.94,111.73 68.4,106.88 69.92,104.61 C71.44,102.34 75.13,98.08 76.22,96.42 C78.22,93.42 83.15,92.76 82.9,96.42 C82.65,100.08 79.31,105.13 79.81,113.2 L79.81,113.19 Z M156.55,199.41 C155.13,207.07 151.83,221.06 150.63,226.7 C149.73,230.93 149.63,233.78 145.52,232.03 C140.19,229.75 142.21,219.9 137.21,211.95 C132.49,204.44 129.43,191.35 120.67,179.62 C119.612243,178.186995 118.978172,176.485743 118.84,174.71 L118.55,163.01 C118.55,163.01 117.86,157.6 124.62,163.11 C134.01,170.75 138.47,171.91 141,172.99 C145.994327,174.996561 150.276811,178.44692 153.3,182.9 C155.7,186.75 158.46,189.1 156.55,199.42 L156.55,199.41 Z"></path>
        </g>
    </g>
</svg>