<?xml version="1.0" encoding="UTF-8"?>
<svg width="205px" height="429px" viewBox="0 0 205 429" version="1.1" xmlns="http://www.w3.org/2000/svg" xmlns:xlink="http://www.w3.org/1999/xlink">
    <title>darvin1</title>
    <g id="darvin1" stroke="none" stroke-width="1" fill="none" fill-rule="evenodd">
        <g transform="translate(16.000000, 241.000000)" fill="#329DCA" fill-rule="nonzero" id="Shape">
            <path d="M169,125.86 C166.33,118.94 163,115.86 161.53,114.78 C160.06,113.7 142.6,101.49 135.21,96.57 C127.82,91.65 123.62,87.98 122.7,84.57 C121.85,81.41 123,70.57 123,65.85 C123,61.13 123.3,51.96 122.8,50.18 C122.3,48.4 115.11,45.45 120.63,40.42 C126.15,35.39 126.63,42.19 126.63,42.19 C126.76,47.8 128.52,47.96 131.71,47.83 C134.9,47.7 135.62,45.53 135.54,42.09 C135.44,37.72 136.69,36.99 136.69,36.99 C138.936773,35.1382122 139.74298,32.0544684 138.69,29.34 C137.03,24.34 135.12,25.34 131.69,22.34 C128.26,19.34 131.69,14.94 132.07,13.67 C132.45,12.4 133.73,2.83 114.07,0.4 C94.41,-2.03 92.43,13.63 91.45,17.58 C91.0183046,19.7967723 89.4941871,21.6445295 87.4,22.49 C71.74,27.2 58.85,34.87 50.72,41.92 C44.42,47.38 42.43,49.4 31.84,61.56 C26.84,67.34 15.19,69.99 7.74,78.56 C-15.4,105.13 20.74,126.73 20.74,126.73 C20.74,126.73 29.82,130.55 31.45,132.61 C33.08,134.67 33.45,144.09 30.04,150.61 C26.63,157.13 23.08,165 21.67,173 C21.11,176.18 21.77,179.12 20.67,179.48 C19.436904,179.91571 18.5072815,180.944729 18.1986416,182.215599 C17.8900018,183.486469 18.2441017,184.827249 19.14,185.78 C21.04,187.61 28.35,186.86 29.65,186.97 C30.95,187.08 63.34,186.32 66.59,186.21 C69.84,186.1 85.59,186.32 94.59,186.21 C103.59,186.1 104.93,185.21 104.47,182.01 C103.95,178.36 95.35,177.22 92.53,177.01 C89.71,176.8 82.45,177.44 78.34,172.68 C74.23,167.92 77.26,160.55 78.12,158.92 C78.98,157.29 82.67,147.33 82.89,134.22 C83.11,121.11 77.69,117.54 76.5,115.59 C75.31,113.64 70.7,108.48 66.82,103.21 C62.94,97.94 64.25,94.12 65.29,92.87 C66.33,91.62 77.49,83.79 79,82.61 C80.51,81.43 84.86,79.04 87.26,82.75 C89.66,86.46 96.86,90.01 99.91,91.43 C100.679362,91.778269 101.124307,92.5946814 101,93.43 C99.86,100.9 103.59,110.34 103.59,110.34 C109.12,124.89 130.17,144.87 133.9,149.76 C137.63,154.65 133.16,160 132.16,163 C131.16,166 133.4,168.3 135.31,170 C137.22,171.7 136.55,175.38 132.91,177 C129.27,178.62 129.35,182.88 138.38,184.12 C147.41,185.36 148.32,181.12 149.23,179.48 C150.14,177.84 150.06,168.3 149.06,158.94 C148.06,149.58 146.58,147.68 144.67,142.63 C142.76,137.58 139.12,133.99 135.86,127.09 C132.6,120.19 133.78,117.15 134.38,116.63 C134.98,116.11 135.24,115.41 140.98,116.82 C146.72,118.23 149.98,122.32 151.2,128.29 C152.42,134.26 158,134 158.51,137 C159.02,140 156.62,145.8 160,148.55 C163.38,151.3 169.74,148.39 171.71,142.97 C173.68,137.55 171.71,132.78 169,125.86 Z M62.15,147.1 C59.42,150.92 57.83,156.15 57.66,162.1 C57.52,166.98 57.2,172.79 58.71,174.79 C62.35,179.58 59.4,179.36 59.4,179.36 C56.51,180.14 50.76,177.36 48.24,173.71 C46.24,170.81 45.24,162.95 46.77,156.63 C48.3,150.31 52.07,145.87 52.77,139.38 C53.2142975,135.672747 52.8178182,131.91303 51.61,128.38 C50.54,124.53 53.32,123.38 55.61,124.99 C58.166936,127.028101 60.3698851,129.47432 62.13,132.23 C63,133.77 66.21,141.41 62.15,147.1 Z"></path>
        </g>
    </g>
</svg>