<?xml version="1.0" encoding="UTF-8"?>
<svg width="205px" height="429px" viewBox="0 0 205 429" version="1.1" xmlns="http://www.w3.org/2000/svg" xmlns:xlink="http://www.w3.org/1999/xlink">
    <title>darvin6</title>
    <g id="darvin6" stroke="none" stroke-width="1" fill="none" fill-rule="evenodd">
        <path d="M204.535172,328.15087 C203.528957,324.930983 201.022365,322.225384 197.990305,321.087244 C195.291414,320.076557 192.433765,319.837302 190.047918,319.895439 C190.20672,319.445158 190.275108,318.967967 190.249161,318.49121 C190.204552,317.53938 189.670833,316.678324 188.838225,316.214929 C186.014116,314.542377 179.49161,316.438533 176.627252,317.829345 C174.266002,318.971957 172.9937,321.54563 172.46376,322.89843 C159.17502,325.979682 147.174235,327.124531 135.806247,326.393348 C134.558541,326.315087 133.346611,326.21223 132.161514,326.095956 C131.831078,326.059716 131.543117,325.854603 131.400873,325.554157 C131.258628,325.253712 131.282478,324.900974 131.463872,324.622411 C143.858199,305.616136 163.41901,294.342061 163.626961,294.198955 L163.689569,294.154235 C166.450629,291.978847 169.033282,289.586118 171.412825,286.998931 C176.604892,281.305993 178.872229,276.39343 178.152226,272.390932 C177.675952,269.747942 175.916194,267.447065 173.291092,266.076377 C170.305989,264.511154 166.618772,264.37252 163.676153,265.709668 C161.053287,266.903709 158.864212,268.755144 157.218492,270.483597 C157.013176,270.0513 156.722643,269.664938 156.364328,269.347692 C155.660316,268.70514 154.673627,268.473276 153.757114,268.735019 C150.581948,269.548935 147.308397,275.503489 146.26417,278.510953 C145.392117,281.015309 146.342431,283.767865 146.934979,285.080416 C140.835083,296.005669 134.352826,301.785813 127.915289,307.957262 C122.325208,313.32374 116.764195,317.290461 111.5207,320.57072 C110.685595,321.09748 109.619549,321.086986 108.794976,320.543888 C108.687647,320.472335 108.578827,320.397801 108.468516,320.320285 C107.723033,319.776304 107.339394,318.864745 107.471545,317.951402 C107.603696,317.038059 108.229979,316.272626 109.099077,315.962258 C115.286178,313.587591 121.23626,307.912541 126.316525,299.415619 C132.130209,289.717947 135.871092,277.527098 135.871092,268.35713 C135.859911,249.965764 120.894147,235 102.496073,235 C84.0979995,235 69.1344713,249.965764 69.1344713,268.361602 C69.1344713,277.529334 72.8842975,289.724655 78.6890374,299.420091 C83.7693028,307.917014 89.7193847,313.580883 95.9064861,315.96673 C96.7755839,316.277098 97.4018668,317.042531 97.534018,317.955874 C97.6661692,318.869217 97.2825296,319.780776 96.5370472,320.324757 C96.4267363,320.405254 96.3179161,320.479788 96.2105865,320.54836 C95.3860135,321.091458 94.3199679,321.101952 93.4848631,320.575192 C88.2413674,317.294933 82.680355,313.32374 77.0902743,307.961734 C70.6527372,301.781341 64.1682436,296.003433 58.0705835,285.087124 C58.6541879,283.774573 59.6022656,281.022017 58.7413932,278.517661 C57.6971661,275.510197 54.4258508,269.555643 51.2484489,268.741728 C50.331936,268.479984 49.3452464,268.711848 48.6412352,269.3544 C48.2829196,269.671646 47.9923869,270.058009 47.7870709,270.490305 C46.1435871,268.764088 43.9522755,266.912653 41.3294096,265.716376 C38.382319,264.374756 34.6928657,264.515626 31.7144707,266.083085 C29.1005489,267.451537 27.3318473,269.75465 26.8533364,272.39764 C26.133334,276.400138 28.4006708,281.312701 33.5927378,287.005639 C35.9722813,289.592826 38.5549336,291.985555 41.3159934,294.160943 L41.3786023,294.205663 C41.5865533,294.348769 61.1473639,305.629552 73.541691,324.629119 C73.7230844,324.907682 73.7469344,325.26042 73.6046899,325.560866 C73.4624455,325.861311 73.1744846,326.066424 72.8440489,326.102664 C71.6589518,326.221174 70.4447862,326.326268 69.1993162,326.400057 C57.8179118,327.124531 45.8171264,325.979682 32.5283864,322.896194 C32.0006828,321.543394 30.7261444,318.969721 28.3648943,317.827109 C25.5005369,316.440769 18.9735586,314.542377 16.1539218,316.212693 C15.3241033,316.678744 14.7939178,317.540401 14.7519296,318.49121 C14.7259833,318.967967 14.7943705,319.445158 14.9531725,319.895439 C12.569562,319.837302 9.71191276,320.076557 7.01078574,321.087244 C3.97872593,322.223148 1.47213371,324.930983 0.465919174,328.15087 C-0.412841523,330.963799 -0.0371880951,333.843808 1.49673007,336.050772 C3.84232796,339.427181 9.4167565,341.001348 18.0724376,340.730788 C21.0138571,340.617791 23.9467853,340.342339 26.8578085,339.905692 C28.3783105,339.682088 29.8853962,339.37128 31.3768298,339.011279 C32.8682633,338.651278 35.8958511,338.076617 41.1974837,337.812765 C53.1557844,337.217981 65.4629063,338.532768 77.8863018,340.03091 C78.2183546,340.079396 78.4846307,340.330377 78.552653,340.658985 C78.6206753,340.987593 78.4759187,341.323658 78.1904022,341.499983 C46.2397365,361.82328 27.7544574,369.385542 23.637922,370.738341 C22.5486582,369.876708 21.4100758,369.079327 20.2279727,368.350259 C17.0080862,366.380314 14.2823628,365.53733 12.1268277,365.843666 C9.66719212,366.192487 7.84482579,368.079699 7.96109947,370.816602 C8.09078934,373.897855 10.420735,378.687436 13.0614892,382.504343 C16.3104441,387.200011 21.0888451,393.460901 26.1914709,393.6532 C30.907263,393.834319 31.2627921,390.381885 31.256084,389.268341 C31.2496938,389.046773 31.3473202,388.834974 31.5199358,388.695917 C32.5552188,387.846224 36.3005729,384.800748 40.1062999,382.142106 C51.5525493,374.150526 69.8589458,365.304783 84.5832185,359.305508 C84.8185086,359.21689 85.0827613,359.254574 85.2839013,359.405429 C85.4850413,359.556284 85.5952086,359.799415 85.5760169,360.050107 C84.6234671,374.409906 82.0743903,386.104355 79.7198483,394.299414 C76.7101488,404.770753 73.4790821,411.539223 72.3610659,413.719354 C72.2655727,413.913356 72.0990046,414.063107 71.8959712,414.137492 C69.5459013,415.031905 63.5197942,417.677131 61.9277392,421.545467 C60.9841336,423.839636 61.8561862,425.977283 64.268865,427.25853 C65.9727216,428.166359 68.3786924,428.638162 71.0574591,428.638162 C73.3282195,428.583966 75.5943903,428.407061 77.8460532,428.108222 C82.8614736,427.365859 93.8180319,425.992936 95.2244963,422.603111 C96.036176,420.651054 95.7097153,418.991918 94.2630024,417.853778 C94.1211277,417.740305 94.0518194,417.558906 94.0818838,417.379739 C94.9762967,413.719354 98.185003,399.01297 101.789487,363.05757 C101.818826,362.689081 102.126418,362.405005 102.496073,362.405005 C102.865729,362.405005 103.173321,362.689081 103.20266,363.05757 C106.807144,399.017442 110.006906,413.72159 110.901319,417.381975 C110.931383,417.561142 110.862075,417.742541 110.7202,417.856014 C109.271251,418.994154 108.947027,420.65329 109.758706,422.605347 C111.165171,425.995172 122.123965,427.368095 127.137149,428.110458 C129.391034,428.409538 131.659451,428.586443 133.932452,428.640398 C136.61569,428.640398 139.017189,428.168595 140.721046,427.260766 C143.133724,425.979519 144.005777,423.841872 143.062171,421.547703 C141.470116,417.681603 135.444009,415.040849 133.093939,414.139728 C132.890906,414.065343 132.724338,413.915592 132.628845,413.72159 C131.510829,411.541459 128.279762,404.777461 125.270062,394.30165 C122.913284,386.106591 120.366444,374.412142 119.413894,360.052343 C119.394702,359.801651 119.504869,359.55852 119.706009,359.407665 C119.907149,359.25681 120.171402,359.219126 120.406692,359.307744 C135.130965,365.307019 153.439597,374.152763 164.883611,382.144342 C168.684866,384.800748 172.434692,387.846224 173.469975,388.698153 C173.64259,388.83721 173.740217,389.049009 173.733827,389.270577 C173.733827,390.388593 174.082648,393.834319 178.79844,393.655436 C183.898829,393.460901 188.67723,387.197775 191.928421,382.506579 C194.573648,378.689672 196.899121,373.900091 197.028811,370.818838 C197.145085,368.090879 195.322719,366.194724 192.863083,365.845902 C190.707548,365.539566 187.981824,366.38255 184.761938,368.352495 C183.579835,369.081563 182.441252,369.878944 181.351989,370.740577 C177.237689,369.385542 158.75241,361.82328 126.810689,341.493275 C126.525172,341.31695 126.380416,340.980885 126.448438,340.652277 C126.51646,340.323669 126.782736,340.072688 127.114789,340.024201 C139.535948,338.52606 151.84307,337.209037 163.803607,337.806057 C169.10524,338.069909 172.146244,338.640097 173.624261,339.004571 C175.102278,339.369044 176.62278,339.67538 178.143282,339.898984 C181.053399,340.338544 183.985579,340.616982 186.926417,340.733024 C195.582098,341.003584 201.156527,339.429417 203.502125,336.053008 C205.038279,333.846044 205.411696,330.966035 204.535172,328.15087 Z" id="Path" fill="#FF0000" fill-rule="nonzero"></path>
    </g>
</svg>