<?xml version="1.0" encoding="UTF-8"?>
<svg width="205px" height="429px" viewBox="0 0 205 429" version="1.1" xmlns="http://www.w3.org/2000/svg" xmlns:xlink="http://www.w3.org/1999/xlink">
    <title>darvin5</title>
    <g id="darvin5" stroke="none" stroke-width="1" fill="none" fill-rule="evenodd">
        <g transform="translate(20.000000, 0.000000)" fill="#191598" fill-rule="nonzero" id="Path">
            <path d="M15.83,416 C14.05,412.22 13.94,404.11 5.64,398.07 C-2.66,392.03 -0.77,386 4.7,382.65 C10.17,379.3 15.08,381.14 19.61,368.31 C24.14,355.48 33.61,332.46 42.07,325.66 C50.53,318.86 57.17,316.41 60.37,314.53 C63.57,312.65 64.71,314.15 65.47,293.21 C66.23,272.27 69.24,257.73 68.68,252.64 C68.12,247.55 55.47,232.83 55.85,217.73 C56.23,202.63 56.79,198.86 67.93,185.46 C67.93,185.46 73.4,179.77 65.48,166.4 C62.2251464,160.052943 60.726726,152.950983 61.14,145.83 C61.71,133.56 60.2,126.39 58.5,122.62 C56.8,118.85 55.1,112.62 58.12,104.13 C61.14,95.64 66.23,82.24 71.33,78.65 C76.43,75.06 80.2,73.55 84.54,65.25 C88.88,56.95 86.62,46.46 86.24,44.06 C85.86,41.66 75.24,-1.05 113.6,1.06 C113.6,1.06 135.6,1.25 142.66,20.55 C142.66,20.55 144.38,25.27 142.66,27.38 C141.120777,29.0873653 140.24755,31.2917305 140.2,33.59 C140.2,35.7 139.46,39.05 137.72,39.92 C135.98,40.79 133.87,42.65 134.37,43.92 C134.87,45.19 138.47,46.65 138.37,48.76 C138.27,50.87 137.25,52.76 135.37,53.11 C133.49,53.46 134.87,58.82 132.37,61.3 C129.87,63.78 129.14,67.76 124.92,69.99 C120.7,72.22 118.02,70.51 116.48,67.88 C115.03,65.4 112.26,64.4 110.4,66.14 C108.54,67.88 106.18,75.7 110.15,81.04 C114.12,86.38 125.92,103.58 128.15,108.84 C130.38,114.1 130.74,117.6 130.42,121.42 C130.42,121.42 129.9,140.37 129.1,145.14 C128.3,149.91 123.69,159.79 124.8,170.14 C125.91,180.49 140.56,208.19 145.02,215.36 C149.48,222.53 149.8,223.16 150.91,224.43 C152.02,225.7 161.26,232.07 162.69,237.01 C164.12,241.95 162.37,248.47 157.75,251.82 C153.13,255.17 149.75,255.82 146.13,254.05 C142.51,252.28 141.67,248.32 142.63,247.36 C143.59,246.4 148.84,244.81 145.63,241.95 C142.42,239.09 139.9,240.68 138.31,236.54 C136.72,232.4 139.58,229.22 137.67,225.24 C135.76,221.26 127.48,207.41 122.23,207.73 C116.98,208.05 116.83,222 116,226.33 C115.17,230.66 115.2,235.4 118.07,240.18 C120.94,244.96 122.37,243.36 122.69,249.25 C123.01,255.14 122.53,260.08 124.92,267.56 C127.31,275.04 135.11,297.33 136.22,301.15 C137.33,304.97 141.47,315 137.22,326.94 C132.97,338.88 127.67,364.67 126.87,376.29 C126.07,387.91 124.07,403.29 126.55,407.97 C128.77,412.14 131.15,412.84 135.08,413.46 C136.944944,413.745611 138.777154,414.21455 140.55,414.86 C143.668737,416.047387 146.870742,417.003309 150.13,417.72 C155.68,418.78 163.13,418.53 164.86,421.24 C166.5,423.78 164.6,425.83 162.58,426.83 C159.89,428.17 152.88,428.68 147.67,427.94 C142.46,427.2 140.32,421.04 126.92,423.52 C121.47,424.52 113.35,429.71 107.09,425.06 C102.81,421.89 103.7,416.38 108.18,410.06 C112.66,403.74 106.87,382.52 106.18,380.88 C105.49,379.24 97.77,336.05 104,315.4 C110.23,294.75 96.34,302.4 95.55,306.01 C94.76,309.62 89.76,330.41 85.07,335.73 C80.38,341.05 56.52,356.19 45.5,371.73 C39,380.88 29.69,382.92 26.42,389.73 C24.47,393.73 21.57,407.73 28.3,413.66 C31.5299751,415.294378 34.8716723,416.69789 38.3,417.86 C43.21,419.45 42.77,423.34 36.71,423.05 C30.65,422.76 20.38,425.66 15.83,416 Z"></path>
        </g>
    </g>
</svg>