<?xml version="1.0" encoding="UTF-8"?>
<svg width="205px" height="429px" viewBox="0 0 205 429" version="1.1" xmlns="http://www.w3.org/2000/svg" xmlns:xlink="http://www.w3.org/1999/xlink">
    <title>darvin3</title>
    <g id="darvin3" stroke="none" stroke-width="1" fill="none" fill-rule="evenodd">
        <g transform="translate(17.000000, 98.000000)" fill="#FF3CD8" fill-rule="nonzero" id="Path">
            <path d="M3.16,294.81 C8.24,298.16 16.88,299.22 19.78,307.15 C22.68,315.08 35.52,317.73 37.91,316.59 C40.3,315.45 42.07,310.67 37.41,307.52 C32.75,304.37 22.68,292.79 25.2,283.72 C27.72,274.65 42.7,263.2 43.84,262.72 C44.98,262.24 71.42,241.19 74.94,236.15 C78.46,231.11 81.81,215.89 82.87,209.83 C83.76,204.83 84.97,204.83 86.02,204.83 C87.07,204.83 89.26,204.98 90.02,212.76 C90.92,221.7 95.18,226.76 98.83,230.76 C102.48,234.76 109.66,239.83 106.01,247.13 C102.36,254.43 98.83,258.59 99.84,277.13 C99.84,277.13 101.49,288.97 108.33,297.13 C113.18,302.91 110.33,311.88 109.91,313.76 C109.49,315.64 105.37,322.7 110.25,327.5 C114.09,331.27 120.25,330.03 121.85,329.74 C123.45,329.45 127.24,326.96 138.44,327.05 C147.87,327.12 154.73,330.84 158.78,329.75 C162.83,328.66 163.12,321.86 154.88,321.28 C146.64,320.7 139,317.41 135.24,316 C131.48,314.59 126.11,316.32 127.7,302.44 C129.29,288.56 125.16,270.56 128.01,260.38 C129.39,255.43 132.45,252.45 130.89,243.99 C129.6,236.99 123.09,229.27 121.89,218.43 C120.69,207.59 115.53,180.69 116.39,164.64 C116.39,164.64 116.53,156.54 116.97,154.64 C117.41,152.74 120.44,149.58 122.9,146.64 C125.36,143.7 124.9,136.81 128.25,136.52 C131.6,136.23 132.51,138.13 132.51,139.81 C132.51,143.21 134.7,150.15 138.1,153.64 C138.1,153.64 145.38,161.64 147.01,163.73 C148.64,165.82 152.73,168.43 152.53,176 C152.33,183.57 152.39,185.95 151.53,187.65 C150.67,189.35 144.44,196.3 143.83,197.26 C143.22,198.22 140.9,202.03 145.26,204.26 C149.62,206.49 154.05,208.14 155.69,205.76 C157.33,203.38 162.23,192.61 162.57,190.29 C162.91,187.97 164.41,176.29 163.12,171.29 C161.83,166.29 155.35,154.39 154.19,152.62 C153.03,150.85 147.03,139.4 146.19,133.62 C145.35,127.84 148.61,105.62 149.57,95.62 C150.53,85.62 147.79,61.62 142.84,56.62 C137.89,51.62 141.27,48.91 145.72,50.44 C148.62,51.44 157.12,52.89 161.13,50.91 C165.14,48.93 166.06,41.11 166,37.69 C166.200485,34.239964 167.141838,30.8736036 168.76,27.82 C169.48,26.9 171.19,26.04 170.86,24.2 C170.53,22.36 167.86,19.6 167.51,17.42 C167.16,15.24 163.1,0.68 149.68,1 C136.26,1.32 129.61,3.4 113.9,26.84 C109.341144,32.0381919 103.793404,36.2771819 97.58,39.31 C87.86,43.8 87.23,63.24 78.39,79.19 C69.55,95.14 69.63,113.48 69.63,117.75 C69.63,122.02 71.84,131.66 66.63,136.25 C61.42,140.84 50,147.79 64.4,171.5 C64.4,171.5 68.4,179.09 64.24,191.26 C60.08,203.43 60.45,222.57 43.69,231.74 C26.93,240.91 23.5,241.38 19.24,262.26 C19.24,262.26 17.92,275.38 6.38,282.18 C6.38,282.18 -5.5,289.1 3.16,294.81 Z"></path>
        </g>
    </g>
</svg>