<?xml version="1.0" encoding="UTF-8"?>
<svg width="205px" height="429px" viewBox="0 0 205 429" version="1.1" xmlns="http://www.w3.org/2000/svg" xmlns:xlink="http://www.w3.org/1999/xlink">
    <title>darvin2</title>
    <g id="darvin2" stroke="none" stroke-width="1" fill="none" fill-rule="evenodd">
        <g transform="translate(41.000000, 158.000000)" fill="#B7AFA6" fill-rule="nonzero" id="Path">
            <path d="M5,246.57 C5.22757456,247.276075 4.95283173,248.046995 4.33,248.45 C2.33,250.06 -1.87,255.62 2.49,260.05 C6.85,264.48 14.78,259.17 14.78,259.17 C14.78,259.17 19.25,256.05 24,258.34 C26.89,259.73 29.81,263.69 32.76,264.03 C35.71,264.37 44.08,261.76 45.08,261.45 C47.18,260.81 48.26,257.84 43,257.2 C37.26,256.5 27.75,251.51 24.79,247.75 C21.83,243.99 21.49,233.87 23,227.3 C24.07,222.39 31.5,202.8 37.3,198 C43.1,193.2 43.72,191 43.45,188.89 C43.21,187 43.02,181.95 46.88,181.72 C50.74,181.49 52.1,185.25 52.1,187.53 C52.1,189.81 52.04,193.85 50.51,196.64 C49.89,197.75 44.7,210.64 46.3,217.36 C47.9,224.08 52.2,235.02 52.74,237.05 C54.74,244.51 53.13,253.44 53.24,255.83 C53.2943963,257.748791 52.5352751,259.601192 51.15,260.93 C49.04,263.08 49.9,267.12 51.87,268.75 C56.54,272.62 61.49,268.89 63.18,266.83 C64.9119209,264.563496 67.6399106,263.283468 70.49,263.4 C75.55,263.4 77.78,266.31 83.22,268.63 C85.78,269.72 90.11,269.48 93.22,269.25 C96.33,269.02 105.04,268.2 100.39,264.06 C95.74,259.92 90.39,263.06 79.22,255.18 C68.64,247.74 69.58,245.65 69.09,238.97 C68.4,229.71 67.5,221.97 69.89,217.23 C72.28,212.49 74.33,208.35 72.74,203.91 C71.15,199.47 69.51,192.64 72.4,189.8 C74.18,188.05 78.55,180.12 77.07,174.66 C75.59,169.2 77.87,168.85 79.07,168.74 C79.78,168.68 82.07,168.68 83.91,168.74 C85.58,168.74 87.37,167.84 87.53,165.92 C87.6037387,164.277624 87.281337,162.641606 86.59,161.15 C84.88,157.28 71.22,121.5 68.7,105.72 C66.42,91.44 71.08,86.59 72.48,84.42 C73.88,82.25 82.78,68.28 83.81,57.29 C84.84,46.3 92.4,44.24 96.86,45.29 C101.32,46.34 106.86,49.76 111.97,49.41 C115.58,49.17 119.7,46.06 121.84,42.68 C123.39927,40.1209691 123.128547,36.848051 121.17,34.58 C120.09878,33.3404064 118.931859,32.1868596 117.68,31.13 C111.96,26.2 114.92,22.31 117.2,22.55 C118.15,22.65 118.89,22.76 118.95,20.2 C118.956768,19.0288433 118.682421,17.8731593 118.15,16.83 C117.26,14.89 117.98,6.83 112.75,4.6 C108.26,2.62 98,-2.27 88.46,1.23 C78.92,4.73 80,10.92 76.38,13.46 C72.76,16 53.38,26.81 44.44,34.46 C35.5,42.11 23.94,64.46 21.08,73.55 C18.22,82.64 11.92,98.53 6.15,105 C-2.14,114.28 -0.34,125.77 1.79,130.85 C5,138.48 10.84,141.95 10.71,148.22 C10.71,148.22 10,162.55 14.71,172.54 C19.42,182.53 22.9,181.98 22.9,185.83 C22.9,189.68 21.13,189.12 17.16,192.68 C13.19,196.24 6.21,200.39 4.63,220.88 C3.45,236.48 4.43,243.92 5,246.57 Z"></path>
        </g>
    </g>
</svg>