<svg id="Слой_1" data-name="Слой 1" xmlns="http://www.w3.org/2000/svg" viewBox="0 0 963.41 910"><defs><style>.cls-1{fill:red;}</style></defs><title>web se gfxМонтажная область 21</title><path class="cls-1" d="M938,438.59c-4.5-14.4-15.71-26.5-29.27-31.59-12.07-4.52-24.85-5.59-35.52-5.33a16.23,16.23,0,0,0,.9-6.28,12.31,12.31,0,0,0-6.31-10.18c-12.63-7.48-41.8,1-54.61,7.22C802.68,397.53,797,409,794.62,415.09c-59.43,13.78-113.1,18.9-163.94,15.63-5.58-.35-11-.81-16.3-1.33a4.28,4.28,0,0,1-3.12-6.59c55.43-85,142.91-145.42,143.84-146.06l.28-.2a294.83,294.83,0,0,0,34.54-32c23.22-25.46,33.36-47.43,30.14-65.33-2.13-11.82-10-22.11-21.74-28.24-13.35-7-29.84-7.62-43-1.64-11.73,5.34-21.52,13.62-28.88,21.35a15.89,15.89,0,0,0-3.82-5.08,12.29,12.29,0,0,0-11.66-2.74c-14.2,3.64-28.84,30.27-33.51,43.72-3.9,11.2.35,23.51,3,29.38-27.28,48.86-56.27,84.71-85.06,112.31-25,24-49.87,41.74-73.32,56.41a11.25,11.25,0,0,1-12.19-.12q-.72-.48-1.46-1a11.14,11.14,0,0,1,2.82-19.49c27.67-10.62,54.28-36,77-74,26-43.37,42.73-97.89,42.73-138.9C630.91,88.93,564,22,481.7,22S332.5,88.93,332.5,171.2c0,41,16.77,95.54,42.73,138.9,22.72,38,49.33,63.33,77,74a11.14,11.14,0,0,1,2.82,19.49q-.74.54-1.46,1a11.25,11.25,0,0,1-12.19.12C418,390,393.09,372.24,368.08,348.26,339.3,320.66,310.3,284.82,283,236c2.61-5.87,6.85-18.18,3-29.38-4.67-13.45-19.3-40.08-33.51-43.72a12.29,12.29,0,0,0-11.66,2.74,15.89,15.89,0,0,0-3.82,5.08c-7.35-7.72-17.15-16-28.88-21.35-13.18-6-29.68-5.37-43,1.64-11.69,6.12-19.6,16.42-21.74,28.24-3.22,17.9,6.92,39.87,30.14,65.33a294.83,294.83,0,0,0,34.54,32l.28.2c.93.64,88.41,61.09,143.84,146.06a4.28,4.28,0,0,1-3.12,6.59c-5.3.53-10.73,1-16.3,1.33-50.84,3.27-104.52-1.85-163.94-15.63-2.36-6.05-8.06-17.56-18.62-22.67-12.81-6.2-42-14.69-54.61-7.22a12.31,12.31,0,0,0-6.31,10.18,16.23,16.23,0,0,0,.9,6.28c-10.66-.26-23.44.81-35.52,5.33-13.56,5.08-24.77,17.19-29.27,31.59-3.93,12.58-2.25,25.46,4.61,35.33,10.49,15.1,35.42,22.14,74.13,20.93a357.34,357.34,0,0,0,39.29-3.69c6.8-1,13.54-2.39,20.21-4s20.21-4.18,43.92-5.36C261,479.1,329.06,485,384.61,491.69a3.57,3.57,0,0,1,1.36,6.57C243.11,589.18,147.45,623,129,629.05a159.77,159.77,0,0,0-15.25-10.68c-14.4-8.81-26.59-12.58-36.23-11.21-11,1.56-19.15,10-18.63,22.24.58,13.78,11,35.2,22.81,52.27,14.53,21,35.9,49,58.72,49.86,21.09.81,22.68-14.63,22.65-19.61a3.17,3.17,0,0,1,1.18-2.56c4.63-3.8,21.38-17.42,38.4-29.31,51.19-35.74,133.06-75.3,198.91-102.13a3.29,3.29,0,0,1,4.44,3.33c-4.26,64.22-15.66,116.52-26.19,153.17-13.46,46.83-27.91,77.1-32.91,86.85a3.76,3.76,0,0,1-2.08,1.87c-10.51,4-37.46,15.83-44.58,33.13-4.22,10.26-.32,19.82,10.47,25.55,7.62,4.06,18.38,6.17,30.36,6.17a281.88,281.88,0,0,0,30.36-2.37c22.43-3.32,71.43-9.46,77.72-24.62,3.63-8.73,2.17-16.15-4.3-21.24a2.24,2.24,0,0,1-.81-2.12c4-16.37,18.35-82.14,34.47-242.94a3.17,3.17,0,0,1,6.32,0c16.12,160.8,30.47,226.57,34.47,242.94a2.24,2.24,0,0,1-.81,2.12c-6.48,5.09-7.93,12.51-4.3,21.24,6.29,15.16,55.3,21.3,77.72,24.62A281.88,281.88,0,0,0,622.31,888c12,0,22.74-2.11,30.36-6.17,10.79-5.73,14.69-15.29,10.47-25.55-7.12-17.29-34.07-29.1-44.58-33.13a3.76,3.76,0,0,1-2.08-1.87c-5-9.75-19.45-40-32.91-86.85-10.54-36.65-21.93-88.95-26.19-153.17a3.29,3.29,0,0,1,4.44-3.33c65.85,26.83,147.73,66.39,198.91,102.13,17,11.88,33.77,25.5,38.4,29.31a3.17,3.17,0,0,1,1.18,2.56c0,5,1.56,20.41,22.65,19.61,22.81-.87,44.18-28.88,58.72-49.86,11.83-17.07,22.23-38.49,22.81-52.27.52-12.2-7.63-20.68-18.63-22.24-9.64-1.37-21.83,2.4-36.23,11.21a159.77,159.77,0,0,0-15.25,10.68C816,623,720.3,589.18,577.44,498.26a3.57,3.57,0,0,1,1.36-6.57c55.55-6.7,123.59-12.59,177.08-9.92,23.71,1.18,37.31,3.73,43.92,5.36s13.41,3,20.21,4a357.34,357.34,0,0,0,39.29,3.69c38.71,1.21,63.64-5.83,74.13-20.93C940.28,464.06,942,451.18,938,438.59Z"/></svg>