<svg id="Слой_1" data-name="Слой 1" xmlns="http://www.w3.org/2000/svg" viewBox="0 0 579.18 76.5"><defs><style>.cls-1{fill:red;}</style></defs><title>web se gfxМонтажная область 20</title><path class="cls-1" d="M20.25,59.4a28.21,28.21,0,0,0,10.12-1.63,13.61,13.61,0,0,0,9.24-13.42,10.39,10.39,0,0,0-1.91-6.13,14.67,14.67,0,0,0-5.15-4.32,33.84,33.84,0,0,0-7.91-2.84q-3.71-.9-5.82-1.52a8.18,8.18,0,0,1-2.65-1.22c-.29-.22-.31-.36-.31-.55s0-.33.62-.73a5.53,5.53,0,0,1,3-.73,5.72,5.72,0,0,1,2.83.53,5,5,0,0,1,1.57,1.28c.35.38.55.63.72.84a7.37,7.37,0,0,0,1.22,1.23,6.24,6.24,0,0,0,4.06,1.39,6.74,6.74,0,0,0,4.84-1.73,6,6,0,0,0,1.87-4.49,7.49,7.49,0,0,0-1.54-4.58A11.29,11.29,0,0,0,31.79,18a14.47,14.47,0,0,0-4.94-2,36.21,36.21,0,0,0-8.13-.85,18.21,18.21,0,0,0-8.37,1.91,14.35,14.35,0,0,0-6.11,5,12.1,12.1,0,0,0-2.15,6.84,10.61,10.61,0,0,0,2.45,7,15.81,15.81,0,0,0,5.89,4.26,55.12,55.12,0,0,0,8.51,2.73,28.07,28.07,0,0,1,5.71,2s1,.6.92,1.38a1.38,1.38,0,0,1-.89,1.26,7.12,7.12,0,0,1-3.51.77,8.46,8.46,0,0,1-4.36-.91,10.66,10.66,0,0,1-2.86-3.1l-.35-.5a7.7,7.7,0,0,0-1.2-1.42c-2.11-1.91-6.24-1.83-8.55.47A6.17,6.17,0,0,0,2,47.25a8.36,8.36,0,0,0,1.91,5.59,15.37,15.37,0,0,0,6.48,4.76A25,25,0,0,0,20.25,59.4Z"/><path class="cls-1" d="M52.64,51.1V23.21a8,8,0,0,0-2-5.7,7,7,0,0,0-3.49-2,7.23,7.23,0,0,0,3.31-1.69,6.81,6.81,0,0,0,2.23-5.3,6.64,6.64,0,0,0-2.33-5.37,7.57,7.57,0,0,0-9.92.19,6.8,6.8,0,0,0-2.26,5.18,6.78,6.78,0,0,0,2.27,5.34,7.37,7.37,0,0,0,3.24,1.64,6.75,6.75,0,0,0-3.55,2.06,8.56,8.56,0,0,0-2,6V51.1A8.75,8.75,0,0,0,40.05,57a6.8,6.8,0,0,0,5.28,2.35,7,7,0,0,0,5.28-2.26A8.57,8.57,0,0,0,52.64,51.1Z"/><path class="cls-1" d="M72.49,74.22a34.53,34.53,0,0,0,9.8-1.2,16.71,16.71,0,0,0,6.95-4.47,15.73,15.73,0,0,0,3.9-6.76,32,32,0,0,0,1.12-9v-28a14.14,14.14,0,0,0-1.18-6.34c-.73-1.44-2.34-3.16-5.88-3.16a6.6,6.6,0,0,0-6.06,3.8,16.9,16.9,0,0,0-2.82-1.88,19.28,19.28,0,0,0-15.48-.44A17,17,0,0,0,56.95,21a19,19,0,0,0-3.88,6.76,26.86,26.86,0,0,0-1.31,8.62A28,28,0,0,0,53.9,47.65a18.31,18.31,0,0,0,6.42,8,17.11,17.11,0,0,0,9.84,2.89,16.49,16.49,0,0,0,8.13-1.93,15.39,15.39,0,0,0,1.36-.85c0,.25,0,.49,0,.7a9.38,9.38,0,0,1-.77,3.19c-.15.33-1.59,3.25-6.56,3.25-2.7,0-4.39-1.45-6.18-2.64s-6.21-2.5-8.77,1.23c-2.93,4.26.85,9,5.45,10.9A26,26,0,0,0,72.49,74.22Zm3.85-28.68a6.18,6.18,0,0,1-3.29.94,5.87,5.87,0,0,1-4.78-2.15c-1.31-1.54-2-4-2-7.3s.66-5.79,2-7.44A5.6,5.6,0,0,1,73,27.37a5.86,5.86,0,0,1,4.93,2.36C79.29,31.48,80,34.06,80,37.42a11.3,11.3,0,0,1-1.07,5.19A7,7,0,0,1,76.34,45.54Z"/><path class="cls-1" d="M102.82,57.15a8.59,8.59,0,0,0,2-6.05V39c0-4.81.36-6.64.56-7.22a6.36,6.36,0,0,1,2.26-3.09,5.4,5.4,0,0,1,3.27-1.07c2.49,0,3,.92,3.13,1.22.48.92,1,2.73,1,6.18V51.1a8.72,8.72,0,0,0,1.95,6,7.19,7.19,0,0,0,10.58,0,8.72,8.72,0,0,0,1.94-6v-18a42.59,42.59,0,0,0-.3-5.56A13.53,13.53,0,0,0,127.8,23a13,13,0,0,0-5.5-5.76,17.93,17.93,0,0,0-16.07-.12,16.72,16.72,0,0,0-2.88,1.92l0,0a6.75,6.75,0,0,0-2.58-2.8,7.09,7.09,0,0,0-8.63,1.25,8.4,8.4,0,0,0-1.81,5.73V51.1a8.72,8.72,0,0,0,1.95,6A7.31,7.31,0,0,0,102.82,57.15Z"/><path class="cls-1" d="M158.69,57.32a6.6,6.6,0,0,0,4.62,2.08,7.06,7.06,0,0,0,4.76-1.82A5.92,5.92,0,0,0,170.3,53a16.47,16.47,0,0,0-1-4.51,17,17,0,0,1-.79-4.93l.05-5.27q0-2.38,0-5.78a22.91,22.91,0,0,0-1.73-9.65,11.71,11.71,0,0,0-6.42-6,30.83,30.83,0,0,0-21-.29,25.12,25.12,0,0,0-6.83,4,6.07,6.07,0,0,0-1.91,5.25,6.37,6.37,0,0,0,3.15,5,5.94,5.94,0,0,0,6.44-.47l1.58-1.22c.85-.66,1.5-1.18,2-1.47a10.32,10.32,0,0,1,5.51-1.46,5.66,5.66,0,0,1,4,1.3c1.85,2.13-1.76,3.13-2.88,3.4q-2.57.61-6.17,1.34c-2.46.5-4,.82-4.59,1a15,15,0,0,0-8.18,4.5,12.14,12.14,0,0,0-3.13,8.37,12.72,12.72,0,0,0,1.87,6.7,13.12,13.12,0,0,0,5.28,4.87c4.56,2.38,11.12,2.2,15.91.2A29.64,29.64,0,0,0,156.68,55,17.74,17.74,0,0,0,158.69,57.32Zm-8-10.09a8.82,8.82,0,0,1-4.17,1,3.77,3.77,0,0,1-2.69-.89,2.46,2.46,0,0,1-.88-1.94c0-1.32.66-2,2.56-2.54,1-.31,2.85-.68,5.5-1.25,1.18-.25,2.23-.5,3.17-.74a9.44,9.44,0,0,1-.93,4.1A6,6,0,0,1,150.68,47.23Z"/><path class="cls-1" d="M188.28,46.83c-3.75,1.38-2.62-4.09-2.62-10.44V28a11.47,11.47,0,0,0,4.86-1A5.19,5.19,0,0,0,193.39,22a5.63,5.63,0,0,0-1.88-4.3,6.86,6.86,0,0,0-4.76-1.6h-1.1V12a22.2,22.2,0,0,0-.32-4.25,6.5,6.5,0,0,0-2-3.54,7.23,7.23,0,0,0-8.58-1.07,6.72,6.72,0,0,0-2.49,2.47,7.76,7.76,0,0,0-1,3.29q-.14,1.41-.14,3.89v3.45a6.69,6.69,0,0,0-3.54,1.46,5.54,5.54,0,0,0-2,4.35,5.66,5.66,0,0,0,1.9,4.31,6.44,6.44,0,0,0,3.65,1.55V44.07a30.59,30.59,0,0,0,.81,7.8A9.41,9.41,0,0,0,176,57.48c2,1.29,4.66,1.92,8.18,1.92a19.32,19.32,0,0,0,8.38-1.48,6.29,6.29,0,0,0,3.92-5.76,5.59,5.59,0,0,0-1.65-4A6.74,6.74,0,0,0,188.28,46.83Z"/><path class="cls-1" d="M201.7,57.6a18.51,18.51,0,0,0,13.3.89,16,16,0,0,0,4.92-2.61l.51-.41a6.93,6.93,0,0,0,1.12,1.7,6.9,6.9,0,0,0,10.11.06,8.32,8.32,0,0,0,1.88-5.77v-28a8.57,8.57,0,0,0-1.94-6,7.45,7.45,0,0,0-10.54,0,8.49,8.49,0,0,0-2,6V36.56c0,6.62-1.08,8.82-2.1,9.59a5.33,5.33,0,0,1-5.95.27c-.66-.46-2.22-1.51-2.22-8.37V23.49a8.48,8.48,0,0,0-2-6,7.49,7.49,0,0,0-10.58,0,8.57,8.57,0,0,0-1.94,6V42.61c0,4.32.7,7.61,2.15,10.08A13,13,0,0,0,201.7,57.6Z"/><path class="cls-1" d="M256.4,17.12c-4.7-2.48-10.25-2.38-13.46.28-.31.26-.62.54-.93.85-.08-.13-.16-.26-.25-.38a6.24,6.24,0,0,0-5.45-2.56c-2.14,0-7.13.87-7.13,8.94V51.12a8.67,8.67,0,0,0,2,6,6.88,6.88,0,0,0,5.23,2.28,7.05,7.05,0,0,0,5.27-2.23,8.55,8.55,0,0,0,2-6.06V43.06c0-2.81.09-5.21.27-7.15a20.55,20.55,0,0,1,.91-4.66A4.85,4.85,0,0,1,246.21,29c.87-.72,2.45-.75,4.75,0a11.41,11.41,0,0,0,3.31.77,6.49,6.49,0,0,0,6.29-6.5C260.56,21.49,259.84,19,256.4,17.12Z"/><path class="cls-1" d="M294,40.8c1.55-.8,3.4-2.65,3.4-6.88a18.66,18.66,0,0,0-2.3-8.84,18.1,18.1,0,0,0-7-7.12,21.2,21.2,0,0,0-10.93-2.72,24.08,24.08,0,0,0-8.8,1.56,18.52,18.52,0,0,0-6.9,4.62,19.88,19.88,0,0,0-4.23,7.12,26.5,26.5,0,0,0-1.41,8.74c0,6.68,2,12.1,5.85,16.08s9.35,6,16.2,6a24.79,24.79,0,0,0,8-1.19,20.29,20.29,0,0,0,5.6-2.83,8.46,8.46,0,0,0,3-3.13A5.39,5.39,0,0,0,293,45.1a6.83,6.83,0,0,0-8.89.34,8.51,8.51,0,0,1-1.82,1.51,7.8,7.8,0,0,1-2.13.88,8,8,0,0,1-6-.62,6.71,6.71,0,0,1-2.51-2.8,9.38,9.38,0,0,1-.79-2.26H287A15.17,15.17,0,0,0,294,40.8Zm-23-9a7.81,7.81,0,0,1,1.69-3.28,5.28,5.28,0,0,1,4.14-1.72,5.62,5.62,0,0,1,4.33,1.69,7.24,7.24,0,0,1,1.63,3.3Z"/><path class="cls-1" d="M500.51,17.85a21.2,21.2,0,0,0-10.93-2.72,24.08,24.08,0,0,0-8.8,1.56,18.52,18.52,0,0,0-6.9,4.62,19.88,19.88,0,0,0-4.23,7.12,26.5,26.5,0,0,0-1.41,8.74c0,6.68,2,12.1,5.85,16.08s9.35,6,16.2,6a24.79,24.79,0,0,0,8-1.19,20.29,20.29,0,0,0,5.6-2.83,8.46,8.46,0,0,0,3-3.13A5.39,5.39,0,0,0,505.34,45a6.84,6.84,0,0,0-8.89.34,8.51,8.51,0,0,1-1.82,1.51,7.8,7.8,0,0,1-2.13.88,8,8,0,0,1-6-.62,6.71,6.71,0,0,1-2.51-2.8,9.38,9.38,0,0,1-.79-2.26H499.4a15.17,15.17,0,0,0,7-1.35c1.55-.8,3.4-2.65,3.4-6.88a18.66,18.66,0,0,0-2.3-8.84A18.1,18.1,0,0,0,500.51,17.85Zm-5.3,13.85H483.43a7.81,7.81,0,0,1,1.69-3.28,5.28,5.28,0,0,1,4.14-1.72,5.62,5.62,0,0,1,4.33,1.69A7.24,7.24,0,0,1,495.21,31.7Z"/><path class="cls-1" d="M401.13,17.85a21.2,21.2,0,0,0-10.93-2.72,24.08,24.08,0,0,0-8.8,1.56,18.52,18.52,0,0,0-6.9,4.62,19.88,19.88,0,0,0-4.23,7.12,26.5,26.5,0,0,0-1.41,8.74c0,6.68,2,12.1,5.85,16.08s9.35,6,16.2,6a24.79,24.79,0,0,0,8-1.19,20.29,20.29,0,0,0,5.6-2.83,8.46,8.46,0,0,0,3-3.13A5.39,5.39,0,0,0,406,45a6.84,6.84,0,0,0-8.89.34,8.51,8.51,0,0,1-1.82,1.51,7.8,7.8,0,0,1-2.13.88,8,8,0,0,1-6-.62,6.71,6.71,0,0,1-2.51-2.8,9.38,9.38,0,0,1-.79-2.26H400a15.17,15.17,0,0,0,7-1.35c1.55-.8,3.4-2.65,3.4-6.88A18.66,18.66,0,0,0,408.1,25,18.1,18.1,0,0,0,401.13,17.85Zm-5.3,13.85H384a7.81,7.81,0,0,1,1.69-3.28,5.28,5.28,0,0,1,4.14-1.72,5.62,5.62,0,0,1,4.33,1.69A7.24,7.24,0,0,1,395.83,31.7Z"/><path class="cls-1" d="M347.67,17.85a21.2,21.2,0,0,0-10.93-2.72,24.08,24.08,0,0,0-8.8,1.56,18.52,18.52,0,0,0-6.9,4.62,19.88,19.88,0,0,0-4.23,7.12,26.5,26.5,0,0,0-1.41,8.74c0,6.68,2,12.1,5.85,16.08s9.35,6,16.2,6a24.79,24.79,0,0,0,8-1.19,20.29,20.29,0,0,0,5.6-2.83,8.46,8.46,0,0,0,3-3.13A5.39,5.39,0,0,0,352.5,45a6.84,6.84,0,0,0-8.89.34,8.51,8.51,0,0,1-1.82,1.51,7.8,7.8,0,0,1-2.13.88,8,8,0,0,1-6-.62,6.71,6.71,0,0,1-2.51-2.8,9.38,9.38,0,0,1-.79-2.26h16.18a15.17,15.17,0,0,0,7-1.35c1.55-.8,3.4-2.65,3.4-6.88a18.66,18.66,0,0,0-2.3-8.84A18.1,18.1,0,0,0,347.67,17.85Zm-5.3,13.85H330.59a7.81,7.81,0,0,1,1.69-3.28,5.28,5.28,0,0,1,4.14-1.72,5.62,5.62,0,0,1,4.33,1.69A7.24,7.24,0,0,1,342.37,31.7Z"/><path class="cls-1" d="M357.71,3.16a8.83,8.83,0,0,0-1.89,6V51a8.75,8.75,0,0,0,1.93,5.94A6.8,6.8,0,0,0,363,59.29a7,7,0,0,0,5.3-2.25,8.62,8.62,0,0,0,2-6V9.14a8.64,8.64,0,0,0-2-6A7.43,7.43,0,0,0,357.71,3.16Z"/><path class="cls-1" d="M462.58,17.11a16.45,16.45,0,0,0-19.16,2.61A13,13,0,0,0,440.05,17c-4.1-2.27-10.29-2.35-14.87-.09a16.38,16.38,0,0,0-2.8,1.76,6.77,6.77,0,0,0-1.11-1.47,7.2,7.2,0,0,0-10.14.2,8.41,8.41,0,0,0-1.87,5.75V50.78a8.9,8.9,0,0,0,2,6.18,7.48,7.48,0,0,0,10.79,0,9,9,0,0,0,2-6.15v-13c0-3.68.43-6.48,1.28-8.31.23-.51.85-1.84,4-1.84A2.41,2.41,0,0,1,431,28a3.76,3.76,0,0,1,.79,2A47.27,47.27,0,0,1,432,35.4V50.78A9,9,0,0,0,434,57a7.53,7.53,0,0,0,10.8,0,8.91,8.91,0,0,0,2-6.19V37.95c0-4.94.54-6.92.81-7.54a5.22,5.22,0,0,1,1.83-2.1,4.06,4.06,0,0,1,2.28-.73,2.52,2.52,0,0,1,1.74.49,3.31,3.31,0,0,1,.81,1.85,34.17,34.17,0,0,1,.24,4.64V50.78a8.88,8.88,0,0,0,2,6.18,7.46,7.46,0,0,0,10.82,0,8.91,8.91,0,0,0,2-6.19V31.94c0-4.15-.48-7.18-1.48-9.3A12.29,12.29,0,0,0,462.58,17.11Z"/><path class="cls-1" d="M546.41,22.92a13,13,0,0,0-5.5-5.76A17.92,17.92,0,0,0,524.85,17,16.72,16.72,0,0,0,522,19l0,0a6.75,6.75,0,0,0-2.58-2.8,7.09,7.09,0,0,0-8.63,1.25,8.4,8.4,0,0,0-1.81,5.73V51a8.72,8.72,0,0,0,1.95,6,7.31,7.31,0,0,0,10.55.1,8.59,8.59,0,0,0,2-6.05V38.9c0-4.81.36-6.64.56-7.22a6.36,6.36,0,0,1,2.26-3.09,5.4,5.4,0,0,1,3.27-1.07c2.49,0,3,.92,3.13,1.22.48.92,1,2.73,1,6.18V51a8.72,8.72,0,0,0,1.95,6,7.19,7.19,0,0,0,10.58,0,8.72,8.72,0,0,0,1.94-6V33a42.59,42.59,0,0,0-.3-5.56A13.53,13.53,0,0,0,546.41,22.92Z"/><path class="cls-1" d="M571.71,46.37a14,14,0,0,0-2.76.35,9.61,9.61,0,0,1-1.8.25,4.57,4.57,0,0,0-.49,0,1.39,1.39,0,0,1-.19-.61,25.91,25.91,0,0,1-.14-3.17V27.86a11.47,11.47,0,0,0,4.86-1,5.19,5.19,0,0,0,2.87-4.89,5.63,5.63,0,0,0-1.88-4.3,6.86,6.86,0,0,0-4.76-1.6h-1.1V11.9A22.2,22.2,0,0,0,566,7.65a6.5,6.5,0,0,0-2-3.54A7.24,7.24,0,0,0,555.45,3,6.72,6.72,0,0,0,553,5.5a7.76,7.76,0,0,0-1,3.29q-.14,1.41-.14,3.89V16A7.34,7.34,0,0,0,547,17.59a5.54,5.54,0,0,0-2,4.35,5.66,5.66,0,0,0,1.9,4.31,6.94,6.94,0,0,0,4.81,1.62L551.81,44a30.59,30.59,0,0,0,.81,7.8,9.41,9.41,0,0,0,4.07,5.61c2,1.29,4.66,1.92,8.18,1.92a19.32,19.32,0,0,0,8.38-1.48A6.29,6.29,0,0,0,577.18,52a5.59,5.59,0,0,0-1.65-4A5.35,5.35,0,0,0,571.71,46.37Z"/></svg>